<mxfile host="app.diagrams.net" modified="2022-03-22T16:21:38.514Z" agent="5.0 (Windows NT 10.0; WOW64) AppleWebKit/537.36 (KHTML, like Gecko) Chrome/99.0.4844.74 Safari/537.36" etag="SFJzYa8NfLvTq6jSnapm" version="17.1.3" type="github">
  <diagram id="h8d7F4GCrZsvWcl38N-L" name="Page-1">
    <mxGraphModel dx="981" dy="487" grid="1" gridSize="10" guides="1" tooltips="1" connect="1" arrows="1" fold="1" page="1" pageScale="1" pageWidth="827" pageHeight="1169" math="1" shadow="0">
      <root>
        <mxCell id="0" />
        <mxCell id="1" parent="0" />
        <mxCell id="Y88tat9vhitmDnBT7I_2-25" value="" style="edgeStyle=orthogonalEdgeStyle;rounded=0;orthogonalLoop=1;jettySize=auto;html=1;fontSize=24;" edge="1" parent="1" source="Y88tat9vhitmDnBT7I_2-1" target="Y88tat9vhitmDnBT7I_2-9">
          <mxGeometry relative="1" as="geometry" />
        </mxCell>
        <mxCell id="Y88tat9vhitmDnBT7I_2-39" value="" style="edgeStyle=orthogonalEdgeStyle;rounded=0;orthogonalLoop=1;jettySize=auto;html=1;fontSize=18;startArrow=classic;startFill=1;endArrow=none;endFill=0;" edge="1" parent="1" source="Y88tat9vhitmDnBT7I_2-1" target="Y88tat9vhitmDnBT7I_2-37">
          <mxGeometry relative="1" as="geometry" />
        </mxCell>
        <mxCell id="Y88tat9vhitmDnBT7I_2-1" value="" style="rounded=1;whiteSpace=wrap;html=1;" vertex="1" parent="1">
          <mxGeometry x="120" y="250" width="80" height="190" as="geometry" />
        </mxCell>
        <mxCell id="Y88tat9vhitmDnBT7I_2-2" value="" style="ellipse;whiteSpace=wrap;html=1;aspect=fixed;fillColor=#f5f5f5;strokeColor=#666666;fontColor=#333333;" vertex="1" parent="1">
          <mxGeometry x="130" y="259" width="60" height="60" as="geometry" />
        </mxCell>
        <mxCell id="Y88tat9vhitmDnBT7I_2-3" value="" style="ellipse;whiteSpace=wrap;html=1;aspect=fixed;fillColor=#f5f5f5;strokeColor=#666666;fontColor=#333333;" vertex="1" parent="1">
          <mxGeometry x="130" y="372" width="60" height="60" as="geometry" />
        </mxCell>
        <mxCell id="Y88tat9vhitmDnBT7I_2-5" value="" style="shape=waypoint;sketch=0;fillStyle=solid;size=6;pointerEvents=1;points=[];fillColor=none;resizable=0;rotatable=0;perimeter=centerPerimeter;snapToPoint=1;fontSize=36;" vertex="1" parent="1">
          <mxGeometry x="140" y="315" width="40" height="40" as="geometry" />
        </mxCell>
        <mxCell id="Y88tat9vhitmDnBT7I_2-6" value="" style="shape=waypoint;sketch=0;fillStyle=solid;size=6;pointerEvents=1;points=[];fillColor=none;resizable=0;rotatable=0;perimeter=centerPerimeter;snapToPoint=1;fontSize=36;" vertex="1" parent="1">
          <mxGeometry x="140" y="325" width="40" height="40" as="geometry" />
        </mxCell>
        <mxCell id="Y88tat9vhitmDnBT7I_2-7" value="" style="shape=waypoint;sketch=0;fillStyle=solid;size=6;pointerEvents=1;points=[];fillColor=none;resizable=0;rotatable=0;perimeter=centerPerimeter;snapToPoint=1;fontSize=36;" vertex="1" parent="1">
          <mxGeometry x="140" y="335" width="40" height="40" as="geometry" />
        </mxCell>
        <mxCell id="Y88tat9vhitmDnBT7I_2-36" value="" style="edgeStyle=orthogonalEdgeStyle;rounded=0;orthogonalLoop=1;jettySize=auto;html=1;fontSize=18;startArrow=none;startFill=0;endArrow=classic;endFill=1;" edge="1" parent="1" source="Y88tat9vhitmDnBT7I_2-9" target="Y88tat9vhitmDnBT7I_2-34">
          <mxGeometry relative="1" as="geometry" />
        </mxCell>
        <mxCell id="Y88tat9vhitmDnBT7I_2-9" value="&lt;font style=&quot;font-size: 24px&quot; face=&quot;宋体&quot; data-font-src=&quot;https://fonts.googleapis.com/css?family=%E5%AE%8B%E4%BD%93&quot;&gt;GRU&lt;/font&gt;" style="rounded=1;whiteSpace=wrap;html=1;fontSize=36;fillColor=#bac8d3;strokeColor=#23445d;" vertex="1" parent="1">
          <mxGeometry x="270" y="321" width="90" height="48" as="geometry" />
        </mxCell>
        <mxCell id="Y88tat9vhitmDnBT7I_2-29" value="" style="edgeStyle=orthogonalEdgeStyle;rounded=0;orthogonalLoop=1;jettySize=auto;html=1;fontSize=24;startArrow=classic;startFill=1;endArrow=none;endFill=0;" edge="1" parent="1" source="Y88tat9vhitmDnBT7I_2-10" target="Y88tat9vhitmDnBT7I_2-9">
          <mxGeometry relative="1" as="geometry" />
        </mxCell>
        <mxCell id="Y88tat9vhitmDnBT7I_2-10" value="" style="rounded=1;whiteSpace=wrap;html=1;" vertex="1" parent="1">
          <mxGeometry x="440" y="170" width="80" height="350" as="geometry" />
        </mxCell>
        <mxCell id="Y88tat9vhitmDnBT7I_2-11" value="" style="ellipse;whiteSpace=wrap;html=1;aspect=fixed;fillColor=#f5f5f5;fontColor=#333333;strokeColor=#666666;" vertex="1" parent="1">
          <mxGeometry x="450" y="181" width="60" height="60" as="geometry" />
        </mxCell>
        <mxCell id="Y88tat9vhitmDnBT7I_2-12" value="" style="ellipse;whiteSpace=wrap;html=1;aspect=fixed;fillColor=#f5f5f5;fontColor=#333333;strokeColor=#666666;" vertex="1" parent="1">
          <mxGeometry x="452" y="451" width="60" height="60" as="geometry" />
        </mxCell>
        <mxCell id="Y88tat9vhitmDnBT7I_2-13" value="" style="shape=waypoint;sketch=0;fillStyle=solid;size=6;pointerEvents=1;points=[];fillColor=none;resizable=0;rotatable=0;perimeter=centerPerimeter;snapToPoint=1;fontSize=36;" vertex="1" parent="1">
          <mxGeometry x="460" y="315" width="40" height="40" as="geometry" />
        </mxCell>
        <mxCell id="Y88tat9vhitmDnBT7I_2-14" value="" style="shape=waypoint;sketch=0;fillStyle=solid;size=6;pointerEvents=1;points=[];fillColor=none;resizable=0;rotatable=0;perimeter=centerPerimeter;snapToPoint=1;fontSize=36;" vertex="1" parent="1">
          <mxGeometry x="460" y="325" width="40" height="40" as="geometry" />
        </mxCell>
        <mxCell id="Y88tat9vhitmDnBT7I_2-15" value="" style="shape=waypoint;sketch=0;fillStyle=solid;size=6;pointerEvents=1;points=[];fillColor=none;resizable=0;rotatable=0;perimeter=centerPerimeter;snapToPoint=1;fontSize=36;" vertex="1" parent="1">
          <mxGeometry x="460" y="335" width="40" height="40" as="geometry" />
        </mxCell>
        <mxCell id="Y88tat9vhitmDnBT7I_2-17" value="" style="ellipse;whiteSpace=wrap;html=1;aspect=fixed;fillColor=#f5f5f5;fontColor=#333333;strokeColor=#666666;" vertex="1" parent="1">
          <mxGeometry x="452" y="255" width="60" height="60" as="geometry" />
        </mxCell>
        <mxCell id="Y88tat9vhitmDnBT7I_2-18" value="" style="ellipse;whiteSpace=wrap;html=1;aspect=fixed;fillColor=#f5f5f5;fontColor=#333333;strokeColor=#666666;" vertex="1" parent="1">
          <mxGeometry x="450" y="380" width="60" height="60" as="geometry" />
        </mxCell>
        <mxCell id="Y88tat9vhitmDnBT7I_2-31" value="" style="edgeStyle=orthogonalEdgeStyle;rounded=0;orthogonalLoop=1;jettySize=auto;html=1;fontSize=24;startArrow=classic;startFill=1;endArrow=none;endFill=0;entryX=1;entryY=0.5;entryDx=0;entryDy=0;" edge="1" parent="1" source="Y88tat9vhitmDnBT7I_2-19" target="Y88tat9vhitmDnBT7I_2-10">
          <mxGeometry relative="1" as="geometry" />
        </mxCell>
        <mxCell id="Y88tat9vhitmDnBT7I_2-41" value="" style="edgeStyle=orthogonalEdgeStyle;rounded=0;orthogonalLoop=1;jettySize=auto;html=1;fontSize=18;startArrow=none;startFill=0;endArrow=classic;endFill=1;" edge="1" parent="1" source="Y88tat9vhitmDnBT7I_2-19" target="Y88tat9vhitmDnBT7I_2-40">
          <mxGeometry relative="1" as="geometry" />
        </mxCell>
        <mxCell id="Y88tat9vhitmDnBT7I_2-19" value="" style="rounded=1;whiteSpace=wrap;html=1;" vertex="1" parent="1">
          <mxGeometry x="600" y="250" width="80" height="190" as="geometry" />
        </mxCell>
        <mxCell id="Y88tat9vhitmDnBT7I_2-20" value="" style="ellipse;whiteSpace=wrap;html=1;aspect=fixed;fillColor=#f5f5f5;fontColor=#333333;strokeColor=#666666;" vertex="1" parent="1">
          <mxGeometry x="610" y="259" width="60" height="60" as="geometry" />
        </mxCell>
        <mxCell id="Y88tat9vhitmDnBT7I_2-21" value="" style="ellipse;whiteSpace=wrap;html=1;aspect=fixed;fillColor=#f5f5f5;fontColor=#333333;strokeColor=#666666;" vertex="1" parent="1">
          <mxGeometry x="610" y="372" width="60" height="60" as="geometry" />
        </mxCell>
        <mxCell id="Y88tat9vhitmDnBT7I_2-22" value="" style="shape=waypoint;sketch=0;fillStyle=solid;size=6;pointerEvents=1;points=[];fillColor=none;resizable=0;rotatable=0;perimeter=centerPerimeter;snapToPoint=1;fontSize=36;" vertex="1" parent="1">
          <mxGeometry x="620" y="315" width="40" height="40" as="geometry" />
        </mxCell>
        <mxCell id="Y88tat9vhitmDnBT7I_2-23" value="" style="shape=waypoint;sketch=0;fillStyle=solid;size=6;pointerEvents=1;points=[];fillColor=none;resizable=0;rotatable=0;perimeter=centerPerimeter;snapToPoint=1;fontSize=36;" vertex="1" parent="1">
          <mxGeometry x="620" y="325" width="40" height="40" as="geometry" />
        </mxCell>
        <mxCell id="Y88tat9vhitmDnBT7I_2-24" value="" style="shape=waypoint;sketch=0;fillStyle=solid;size=6;pointerEvents=1;points=[];fillColor=none;resizable=0;rotatable=0;perimeter=centerPerimeter;snapToPoint=1;fontSize=36;" vertex="1" parent="1">
          <mxGeometry x="620" y="335" width="40" height="40" as="geometry" />
        </mxCell>
        <mxCell id="Y88tat9vhitmDnBT7I_2-33" value="" style="edgeStyle=orthogonalEdgeStyle;rounded=0;orthogonalLoop=1;jettySize=auto;html=1;fontSize=18;startArrow=none;startFill=0;endArrow=classic;endFill=1;" edge="1" parent="1" source="Y88tat9vhitmDnBT7I_2-32" target="Y88tat9vhitmDnBT7I_2-9">
          <mxGeometry relative="1" as="geometry" />
        </mxCell>
        <mxCell id="Y88tat9vhitmDnBT7I_2-32" value="&lt;span style=&quot;font-size: 18px&quot;&gt;$$h_{i}^{t-1}$$&lt;/span&gt;" style="text;html=1;strokeColor=none;fillColor=none;align=center;verticalAlign=middle;whiteSpace=wrap;rounded=0;fontSize=24;" vertex="1" parent="1">
          <mxGeometry x="285" y="261" width="60" height="30" as="geometry" />
        </mxCell>
        <mxCell id="Y88tat9vhitmDnBT7I_2-34" value="&lt;span style=&quot;font-size: 18px&quot;&gt;$$h_{i}^{t}$$&lt;/span&gt;" style="text;html=1;strokeColor=none;fillColor=none;align=center;verticalAlign=middle;whiteSpace=wrap;rounded=0;fontSize=24;" vertex="1" parent="1">
          <mxGeometry x="285" y="406" width="60" height="30" as="geometry" />
        </mxCell>
        <mxCell id="Y88tat9vhitmDnBT7I_2-37" value="&lt;span style=&quot;font-size: 18px&quot;&gt;$$o_{i}^{t}$$&lt;/span&gt;" style="text;html=1;strokeColor=none;fillColor=none;align=center;verticalAlign=middle;whiteSpace=wrap;rounded=0;fontSize=24;" vertex="1" parent="1">
          <mxGeometry x="40" y="335" width="42" height="20" as="geometry" />
        </mxCell>
        <mxCell id="Y88tat9vhitmDnBT7I_2-40" value="&lt;span style=&quot;font-size: 18px&quot;&gt;$$\pi_{i}(o_{i}^{t},h_{i}^{t-1})$$&lt;/span&gt;" style="text;html=1;strokeColor=none;fillColor=none;align=center;verticalAlign=middle;whiteSpace=wrap;rounded=0;fontSize=24;" vertex="1" parent="1">
          <mxGeometry x="730" y="330" width="121" height="30" as="geometry" />
        </mxCell>
      </root>
    </mxGraphModel>
  </diagram>
</mxfile>
